<svg xmlns="http://www.w3.org/2000/svg" xmlns:xlink="http://www.w3.org/1999/xlink" width="500" zoomAndPan="magnify" viewBox="0 0 375 374.999991" height="500" preserveAspectRatio="xMidYMid meet" version="1.0"><defs><g/><clipPath id="58148849fa"><path d="M 115 133 L 312 133 L 312 264.503906 L 115 264.503906 Z M 115 133 " clip-rule="nonzero"/></clipPath></defs><path fill="#545454" d="M 99.050781 129.109375 C 92.917969 160.292969 114.925781 180.523438 118.324219 182.4375 C 119.457031 189.195312 120.992188 195.859375 122.925781 202.433594 C 171.527344 195.054688 211.152344 162.128906 221.15625 150.4375 C 223.414062 147.828125 225.453125 145.054688 227.269531 142.121094 C 220.621094 145.347656 213.660156 147.628906 206.390625 148.960938 C 205.078125 148.722656 203.753906 148.609375 202.421875 148.613281 C 197.828125 142.332031 187.679688 139.246094 187.679688 139.246094 C 187.527344 139.144531 187.386719 139.023438 187.261719 138.890625 C 187.132812 138.753906 187.023438 138.609375 186.929688 138.449219 C 186.832031 138.292969 186.757812 138.125 186.699219 137.953125 C 186.640625 137.777344 186.601562 137.597656 186.582031 137.414062 C 186.5625 137.230469 186.5625 137.046875 186.582031 136.863281 C 186.601562 136.679688 186.640625 136.503906 186.699219 136.328125 C 186.761719 136.152344 186.835938 135.988281 186.933594 135.828125 C 187.027344 135.671875 187.136719 135.523438 187.265625 135.390625 C 195.601562 137.480469 198.152344 143.035156 204.097656 141.683594 C 207.046875 141.023438 210.804688 134.710938 211.441406 131.9375 C 212.335938 127.96875 211.753906 127.289062 212.683594 126.347656 C 214.113281 124.929688 216.796875 125.164062 216.707031 122.671875 C 216.617188 120.179688 214.101562 110.152344 215.242188 107.023438 C 216.382812 103.894531 223.535156 82.65625 208.703125 70.269531 C 195.984375 59.652344 183.0625 62.445312 178.757812 64.089844 C 168.910156 67.777344 159.542969 79.136719 161.847656 95.945312 C 162.785156 102.84375 158.226562 106.886719 154.648438 107.570312 C 134.832031 84.476562 126.996094 86.144531 118.242188 85.640625 C 113.214844 78.8125 107.15625 74.128906 97.855469 74.195312 C 115.640625 63.976562 111.113281 50.019531 125.261719 39.253906 C 136.519531 46.117188 141.695312 45.300781 144.621094 46.027344 C 144.757812 49.761719 148.097656 53.851562 149.910156 54.140625 C 151.71875 54.433594 159.332031 50.476562 159.824219 48.789062 C 160.316406 47.101562 160.070312 34.726562 154.292969 30.15625 C 148.859375 28.511719 128.726562 25.617188 123.976562 26.410156 C 106.699219 34.941406 90.835938 42.5625 83.660156 48.945312 C 78.742188 53.316406 77.679688 56.679688 76.375 58.078125 C 75.066406 59.472656 71.03125 60.984375 68.449219 64.871094 C 63.976562 71.78125 61.742188 82.945312 69.285156 91.699219 C 73.066406 98.4375 69.96875 114.132812 99.050781 129.109375 Z M 99.050781 129.109375 " fill-opacity="1" fill-rule="nonzero"/><g clip-path="url(#58148849fa)"><path fill="#545454" d="M 296.488281 133.714844 C 292.9375 133.511719 278.605469 142.53125 283.445312 148.390625 C 283.179688 151.429688 283.667969 154.617188 289.304688 155.03125 C 291.40625 157.089844 293.222656 159.375 294.746094 161.890625 C 284.6875 172.03125 281.578125 176.925781 280.851562 179.855469 C 269.675781 183.867188 261.214844 193.871094 259.402344 195.601562 C 259.402344 185.8125 247.433594 178.089844 241.417969 178.089844 C 228.988281 190.382812 211.386719 202.152344 193.054688 212.144531 C 168.644531 225.457031 143.683594 233.863281 122.917969 235.796875 C 120.492188 236.03125 118.144531 236.15625 115.875 236.199219 C 123.753906 238.703125 131.789062 240.496094 139.984375 241.578125 C 140.039062 241.695312 140.105469 241.8125 140.175781 241.921875 C 138.488281 249.308594 137.175781 256.761719 136.238281 264.277344 C 164.910156 262.625 197.347656 253.636719 211.25 246.316406 C 211.929688 239.128906 211.992188 231.9375 211.441406 224.742188 C 227.269531 231.449219 242.289062 232.96875 248.707031 232.566406 C 259.414062 235.496094 267.371094 237.039062 270.457031 236.34375 C 275.332031 233.261719 276.046875 231.148438 278.472656 228.152344 C 295.898438 215.855469 299.09375 197.203125 301.464844 186.167969 C 303.832031 175.136719 309.949219 168.285156 311.1875 164.339844 C 313.871094 155.835938 299.652344 133.894531 296.488281 133.714844 Z M 296.488281 133.714844 " fill-opacity="1" fill-rule="nonzero"/></g><path fill="#c4d7f2" d="M 276.347656 120.246094 C 271.082031 108.015625 253.445312 102.550781 229.515625 103.703125 C 241.554688 104.820312 250.046875 108.898438 253.066406 115.898438 C 260.890625 134.183594 228.417969 165.726562 180.414062 186.316406 C 132.40625 206.902344 87.214844 208.914062 79.347656 190.585938 C 76.339844 183.585938 79.257812 174.632812 86.691406 165.101562 C 69.398438 181.730469 61.238281 198.285156 66.492188 210.515625 C 76.550781 233.863281 131.65625 232.578125 189.601562 207.640625 C 247.542969 182.703125 286.386719 143.640625 276.347656 120.246094 Z M 276.347656 120.246094 " fill-opacity="1" fill-rule="nonzero"/><g fill="#545454" fill-opacity="1"><g transform="translate(90.067404, 333.687562)"><g><path d="M 24.875 0.640625 C 20.320312 0.640625 16.4375 -0.222656 13.21875 -1.953125 C 10.007812 -3.679688 7.546875 -6.125 5.828125 -9.28125 C 4.117188 -12.4375 3.265625 -16.175781 3.265625 -20.5 C 3.265625 -24.894531 4.140625 -28.675781 5.890625 -31.84375 C 7.648438 -35.019531 10.15625 -37.472656 13.40625 -39.203125 C 16.65625 -40.941406 20.535156 -41.8125 25.046875 -41.8125 C 27.035156 -41.8125 28.941406 -41.632812 30.765625 -41.28125 C 32.597656 -40.925781 34.300781 -40.414062 35.875 -39.75 C 37.457031 -39.09375 38.773438 -38.300781 39.828125 -37.375 L 36.90625 -30.1875 C 35.070312 -31.507812 33.203125 -32.441406 31.296875 -32.984375 C 29.390625 -33.535156 27.347656 -33.8125 25.171875 -33.8125 C 21.191406 -33.8125 18.140625 -32.679688 16.015625 -30.421875 C 13.898438 -28.160156 12.84375 -24.851562 12.84375 -20.5 C 12.84375 -16.09375 13.898438 -12.769531 16.015625 -10.53125 C 18.140625 -8.300781 21.285156 -7.1875 25.453125 -7.1875 C 27.054688 -7.1875 28.597656 -7.3125 30.078125 -7.5625 C 31.554688 -7.8125 32.992188 -8.191406 34.390625 -8.703125 L 32.53125 -4.96875 L 32.53125 -16.234375 L 23.765625 -16.234375 L 23.765625 -23 L 40.296875 -23 L 40.296875 -2.515625 C 38.960938 -1.847656 37.445312 -1.28125 35.75 -0.8125 C 34.0625 -0.34375 32.285156 0.015625 30.421875 0.265625 C 28.554688 0.515625 26.707031 0.640625 24.875 0.640625 Z M 24.875 0.640625 "/></g></g></g><g fill="#545454" fill-opacity="1"><g transform="translate(134.561376, 333.687562)"><g><path d="M 19.265625 0.640625 C 15.679688 0.640625 12.625 0.0195312 10.09375 -1.21875 C 7.570312 -2.46875 5.644531 -4.222656 4.3125 -6.484375 C 2.988281 -8.742188 2.328125 -11.410156 2.328125 -14.484375 C 2.328125 -17.398438 2.957031 -19.988281 4.21875 -22.25 C 5.488281 -24.507812 7.265625 -26.289062 9.546875 -27.59375 C 11.828125 -28.894531 14.484375 -29.546875 17.515625 -29.546875 C 20.359375 -29.546875 22.828125 -28.953125 24.921875 -27.765625 C 27.023438 -26.578125 28.660156 -24.863281 29.828125 -22.625 C 31.003906 -20.382812 31.59375 -17.726562 31.59375 -14.65625 L 31.59375 -12.328125 L 9.6875 -12.328125 L 9.6875 -17.171875 L 24.875 -17.171875 L 24.0625 -16.296875 C 24.0625 -18.703125 23.515625 -20.507812 22.421875 -21.71875 C 21.328125 -22.925781 19.789062 -23.53125 17.8125 -23.53125 C 16.375 -23.53125 15.132812 -23.207031 14.09375 -22.5625 C 13.0625 -21.925781 12.265625 -21.003906 11.703125 -19.796875 C 11.140625 -18.585938 10.859375 -17.109375 10.859375 -15.359375 L 10.859375 -14.71875 C 10.859375 -12.726562 11.171875 -11.097656 11.796875 -9.828125 C 12.421875 -8.566406 13.382812 -7.632812 14.6875 -7.03125 C 15.988281 -6.425781 17.613281 -6.125 19.5625 -6.125 C 21.082031 -6.125 22.648438 -6.335938 24.265625 -6.765625 C 25.878906 -7.203125 27.304688 -7.867188 28.546875 -8.765625 L 30.953125 -2.75 C 29.429688 -1.65625 27.617188 -0.816406 25.515625 -0.234375 C 23.410156 0.347656 21.328125 0.640625 19.265625 0.640625 Z M 19.265625 0.640625 "/></g></g></g><g fill="#545454" fill-opacity="1"><g transform="translate(168.253002, 333.687562)"><g><path d="M 18.21875 0.640625 C 13.976562 0.640625 10.84375 -0.390625 8.8125 -2.453125 C 6.789062 -4.515625 5.78125 -7.507812 5.78125 -11.4375 L 5.78125 -22.1875 L 0.234375 -22.1875 L 0.234375 -28.96875 L 6.015625 -28.96875 L 6.015625 -37.1875 L 14.828125 -37.1875 L 14.828125 -28.96875 L 23.9375 -28.96875 L 23.9375 -22.1875 L 14.828125 -22.1875 L 14.828125 -11.734375 C 14.828125 -10.054688 15.234375 -8.800781 16.046875 -7.96875 C 16.867188 -7.132812 18.140625 -6.71875 19.859375 -6.71875 C 20.441406 -6.71875 21.050781 -6.785156 21.6875 -6.921875 C 22.332031 -7.054688 22.984375 -7.222656 23.640625 -7.421875 L 24.9375 -0.8125 C 24 -0.34375 22.945312 0.015625 21.78125 0.265625 C 20.613281 0.515625 19.425781 0.640625 18.21875 0.640625 Z M 18.21875 0.640625 "/></g></g></g><g fill="#545454" fill-opacity="1"><g transform="translate(193.53631, 333.687562)"><g><path d="M 4.609375 0 L 4.609375 -41.171875 L 32.984375 -41.171875 L 32.984375 -33.8125 L 13.84375 -33.8125 L 13.84375 -24.0625 L 31.703125 -24.0625 L 31.703125 -16.703125 L 13.84375 -16.703125 L 13.84375 0 Z M 4.609375 0 "/></g></g></g><g fill="#545454" fill-opacity="1"><g transform="translate(228.337362, 333.687562)"><g><path d="M 4.609375 0 L 4.609375 -41.171875 L 13.84375 -41.171875 L 13.84375 0 Z M 4.609375 0 "/></g></g></g><g fill="#545454" fill-opacity="1"><g transform="translate(246.78892, 333.687562)"><g><path d="M 14.421875 0 L 14.421875 -33.453125 L 0.8125 -33.453125 L 0.8125 -41.171875 L 37.3125 -41.171875 L 37.3125 -33.453125 L 23.703125 -33.453125 L 23.703125 0 Z M 14.421875 0 "/></g></g></g></svg>