<svg xmlns="http://www.w3.org/2000/svg" xmlns:xlink="http://www.w3.org/1999/xlink" width="500" zoomAndPan="magnify" viewBox="0 0 375 374.999991" height="500" preserveAspectRatio="xMidYMid meet" version="1.0"><defs><g/><clipPath id="9fe2f8efc8"><path d="M 103 76.253906 L 215 76.253906 L 215 198 L 103 198 Z M 103 76.253906 " clip-rule="nonzero"/></clipPath></defs><g clip-path="url(#9fe2f8efc8)"><path fill="#545454" d="M 126.914062 147.394531 C 122.710938 168.753906 137.789062 182.613281 140.113281 183.921875 C 140.894531 188.550781 141.945312 193.113281 143.269531 197.617188 C 176.558594 192.566406 203.699219 170.011719 210.550781 162 C 212.097656 160.214844 213.496094 158.316406 214.738281 156.304688 C 210.183594 158.515625 205.417969 160.078125 200.4375 160.992188 C 199.539062 160.828125 198.632812 160.75 197.71875 160.753906 C 194.574219 156.449219 187.621094 154.335938 187.621094 154.335938 C 187.410156 154.195312 187.238281 154.011719 187.109375 153.792969 C 186.976562 153.574219 186.898438 153.335938 186.871094 153.082031 C 186.84375 152.828125 186.871094 152.582031 186.953125 152.339844 C 187.035156 152.097656 187.160156 151.882812 187.335938 151.695312 C 193.050781 153.128906 194.792969 156.933594 198.867188 156.007812 C 200.890625 155.554688 203.460938 151.230469 203.898438 149.332031 C 204.511719 146.613281 204.113281 146.144531 204.746094 145.503906 C 205.726562 144.53125 207.566406 144.691406 207.503906 142.984375 C 207.441406 141.277344 205.71875 134.410156 206.5 132.265625 C 207.28125 130.121094 212.179688 115.574219 202.023438 107.09375 C 193.308594 99.820312 184.457031 101.734375 181.511719 102.859375 C 174.765625 105.386719 168.351562 113.164062 169.925781 124.679688 C 170.570312 129.402344 167.445312 132.171875 164.996094 132.640625 C 151.421875 116.824219 146.054688 117.964844 140.0625 117.621094 C 136.617188 112.941406 132.464844 109.734375 126.097656 109.78125 C 138.277344 102.78125 135.175781 93.21875 144.871094 85.847656 C 152.578125 90.546875 156.125 89.988281 158.128906 90.484375 C 158.222656 93.042969 160.511719 95.84375 161.75 96.042969 C 162.992188 96.242188 168.207031 93.535156 168.542969 92.378906 C 168.878906 91.222656 168.710938 82.746094 164.753906 79.613281 C 161.03125 78.488281 147.242188 76.507812 143.988281 77.050781 C 132.152344 82.890625 121.289062 88.113281 116.375 92.484375 C 113.003906 95.476562 112.277344 97.78125 111.382812 98.738281 C 110.484375 99.695312 107.722656 100.730469 105.953125 103.394531 C 102.890625 108.125 101.359375 115.773438 106.527344 121.769531 C 109.117188 126.386719 106.996094 137.132812 126.914062 147.394531 Z M 126.914062 147.394531 " fill-opacity="1" fill-rule="nonzero"/></g><path fill="#545454" d="M 262.152344 150.546875 C 259.71875 150.410156 249.902344 156.589844 253.21875 160.601562 C 253.035156 162.683594 253.371094 164.863281 257.230469 165.148438 C 258.671875 166.558594 259.914062 168.125 260.957031 169.847656 C 254.066406 176.792969 251.941406 180.148438 251.441406 182.152344 C 243.785156 184.902344 237.992188 191.753906 236.75 192.941406 C 236.75 186.234375 228.550781 180.941406 224.429688 180.941406 C 215.917969 189.363281 203.859375 197.425781 191.304688 204.269531 C 174.582031 213.390625 157.488281 219.148438 143.261719 220.472656 C 141.601562 220.632812 139.992188 220.714844 138.4375 220.746094 C 143.835938 222.460938 149.339844 223.691406 154.953125 224.429688 C 154.992188 224.511719 155.035156 224.589844 155.082031 224.667969 C 153.925781 229.726562 153.027344 234.828125 152.386719 239.980469 C 172.027344 238.84375 194.242188 232.691406 203.769531 227.675781 C 204.230469 222.753906 204.277344 217.828125 203.898438 212.898438 C 214.738281 217.492188 225.027344 218.535156 229.421875 218.257812 C 236.757812 220.265625 242.207031 221.320312 244.320312 220.847656 C 247.660156 218.734375 248.148438 217.285156 249.8125 215.234375 C 261.746094 206.8125 263.9375 194.035156 265.558594 186.476562 C 267.183594 178.921875 271.371094 174.226562 272.21875 171.527344 C 274.058594 165.699219 264.320312 150.671875 262.152344 150.546875 Z M 262.152344 150.546875 " fill-opacity="1" fill-rule="nonzero"/><path fill="#c4d7f2" d="M 248.355469 141.324219 C 244.75 132.945312 232.667969 129.203125 216.277344 129.992188 C 224.523438 130.757812 230.34375 133.550781 232.410156 138.34375 C 237.769531 150.871094 215.527344 172.476562 182.644531 186.578125 C 149.761719 200.679688 118.808594 202.058594 113.417969 189.503906 C 111.359375 184.710938 113.355469 178.578125 118.449219 172.046875 C 106.605469 183.4375 101.015625 194.777344 104.613281 203.152344 C 111.503906 219.148438 149.25 218.265625 188.9375 201.183594 C 228.625 184.105469 255.230469 157.347656 248.355469 141.324219 Z M 248.355469 141.324219 " fill-opacity="1" fill-rule="nonzero"/><g fill="#545454" fill-opacity="1"><g transform="translate(134.121089, 279.322306)"><g><path d="M 13.625 0.359375 C 11.132812 0.359375 9.007812 -0.113281 7.25 -1.0625 C 5.488281 -2.019531 4.140625 -3.363281 3.203125 -5.09375 C 2.265625 -6.820312 1.796875 -8.867188 1.796875 -11.234375 C 1.796875 -13.640625 2.273438 -15.710938 3.234375 -17.453125 C 4.191406 -19.191406 5.5625 -20.535156 7.34375 -21.484375 C 9.125 -22.429688 11.253906 -22.90625 13.734375 -22.90625 C 14.816406 -22.90625 15.859375 -22.8125 16.859375 -22.625 C 17.867188 -22.4375 18.800781 -22.160156 19.65625 -21.796875 C 20.519531 -21.429688 21.242188 -20.992188 21.828125 -20.484375 L 20.21875 -16.546875 C 19.21875 -17.265625 18.191406 -17.773438 17.140625 -18.078125 C 16.097656 -18.378906 14.984375 -18.53125 13.796875 -18.53125 C 11.617188 -18.53125 9.945312 -17.910156 8.78125 -16.671875 C 7.625 -15.429688 7.046875 -13.617188 7.046875 -11.234375 C 7.046875 -8.816406 7.625 -6.992188 8.78125 -5.765625 C 9.945312 -4.546875 11.671875 -3.9375 13.953125 -3.9375 C 14.828125 -3.9375 15.671875 -4.003906 16.484375 -4.140625 C 17.296875 -4.285156 18.082031 -4.492188 18.84375 -4.765625 L 17.828125 -2.71875 L 17.828125 -8.890625 L 13.03125 -8.890625 L 13.03125 -12.609375 L 22.078125 -12.609375 L 22.078125 -1.375 C 21.347656 -1.007812 20.519531 -0.695312 19.59375 -0.4375 C 18.664062 -0.1875 17.691406 0.00390625 16.671875 0.140625 C 15.648438 0.285156 14.632812 0.359375 13.625 0.359375 Z M 13.625 0.359375 "/></g></g></g><g fill="#545454" fill-opacity="1"><g transform="translate(158.499098, 279.322306)"><g><path d="M 10.5625 0.359375 C 8.59375 0.359375 6.914062 0.015625 5.53125 -0.671875 C 4.144531 -1.359375 3.085938 -2.316406 2.359375 -3.546875 C 1.640625 -4.785156 1.28125 -6.25 1.28125 -7.9375 C 1.28125 -9.539062 1.625 -10.957031 2.3125 -12.1875 C 3.007812 -13.425781 3.984375 -14.398438 5.234375 -15.109375 C 6.484375 -15.828125 7.9375 -16.1875 9.59375 -16.1875 C 11.15625 -16.1875 12.507812 -15.859375 13.65625 -15.203125 C 14.8125 -14.554688 15.707031 -13.617188 16.34375 -12.390625 C 16.988281 -11.171875 17.3125 -9.71875 17.3125 -8.03125 L 17.3125 -6.75 L 5.3125 -6.75 L 5.3125 -9.40625 L 13.625 -9.40625 L 13.1875 -8.921875 C 13.1875 -10.242188 12.882812 -11.234375 12.28125 -11.890625 C 11.6875 -12.554688 10.847656 -12.890625 9.765625 -12.890625 C 8.972656 -12.890625 8.289062 -12.710938 7.71875 -12.359375 C 7.15625 -12.015625 6.71875 -11.507812 6.40625 -10.84375 C 6.101562 -10.1875 5.953125 -9.378906 5.953125 -8.421875 L 5.953125 -8.0625 C 5.953125 -6.976562 6.117188 -6.085938 6.453125 -5.390625 C 6.796875 -4.703125 7.328125 -4.191406 8.046875 -3.859375 C 8.765625 -3.523438 9.65625 -3.359375 10.71875 -3.359375 C 11.550781 -3.359375 12.410156 -3.472656 13.296875 -3.703125 C 14.179688 -3.941406 14.960938 -4.304688 15.640625 -4.796875 L 16.953125 -1.5 C 16.128906 -0.90625 15.140625 -0.445312 13.984375 -0.125 C 12.828125 0.195312 11.6875 0.359375 10.5625 0.359375 Z M 10.5625 0.359375 "/></g></g></g><g fill="#545454" fill-opacity="1"><g transform="translate(176.958565, 279.322306)"><g><path d="M 9.984375 0.359375 C 7.660156 0.359375 5.941406 -0.207031 4.828125 -1.34375 C 3.722656 -2.476562 3.171875 -4.117188 3.171875 -6.265625 L 3.171875 -12.15625 L 0.125 -12.15625 L 0.125 -15.875 L 3.296875 -15.875 L 3.296875 -20.390625 L 8.125 -20.390625 L 8.125 -15.875 L 13.125 -15.875 L 13.125 -12.15625 L 8.125 -12.15625 L 8.125 -6.4375 C 8.125 -5.519531 8.347656 -4.832031 8.796875 -4.375 C 9.242188 -3.914062 9.9375 -3.6875 10.875 -3.6875 C 11.195312 -3.6875 11.535156 -3.722656 11.890625 -3.796875 C 12.242188 -3.867188 12.597656 -3.957031 12.953125 -4.0625 L 13.65625 -0.453125 C 13.144531 -0.191406 12.566406 0.00390625 11.921875 0.140625 C 11.285156 0.285156 10.640625 0.359375 9.984375 0.359375 Z M 9.984375 0.359375 "/></g></g></g><g fill="#545454" fill-opacity="1"><g transform="translate(190.811156, 279.322306)"><g><path d="M 2.53125 0 L 2.53125 -22.5625 L 18.078125 -22.5625 L 18.078125 -18.53125 L 7.578125 -18.53125 L 7.578125 -13.1875 L 17.375 -13.1875 L 17.375 -9.15625 L 7.578125 -9.15625 L 7.578125 0 Z M 2.53125 0 "/></g></g></g><g fill="#545454" fill-opacity="1"><g transform="translate(209.878465, 279.322306)"><g><path d="M 2.53125 0 L 2.53125 -22.5625 L 7.578125 -22.5625 L 7.578125 0 Z M 2.53125 0 "/></g></g></g><g fill="#545454" fill-opacity="1"><g transform="translate(219.987981, 279.322306)"><g><path d="M 7.90625 0 L 7.90625 -18.34375 L 0.453125 -18.34375 L 0.453125 -22.5625 L 20.453125 -22.5625 L 20.453125 -18.34375 L 12.984375 -18.34375 L 12.984375 0 Z M 7.90625 0 "/></g></g></g></svg>